HIERARCHY
ROOT root
{
  OFFSET 158.576 82.3997 32.7916
  CHANNELS 6 Xposition Yposition Zposition Zrotation Xrotation Yrotation
  JOINT pelvis
  {
    OFFSET 0 0 0
    CHANNELS 3 Zrotation Xrotation Yrotation
    JOINT thorax
    {
      OFFSET 0 22.7874 -5
      CHANNELS 3 Zrotation Xrotation Yrotation
      JOINT rclavicle
      {
        OFFSET 0 28.1932 0
        CHANNELS 3 Zrotation Xrotation Yrotation
        JOINT rhumerus
        {
          OFFSET -18.7865 5.8498 0
          CHANNELS 3 Zrotation Xrotation Yrotation
          JOINT rradius
          {
            OFFSET -24.717 0 0
            CHANNELS 3 Zrotation Xrotation Yrotation
            JOINT rhand
            {
              OFFSET -24.7363 0 0
              CHANNELS 3 Zrotation Xrotation Yrotation
              End Site
              {
                OFFSET -8.2454 0 0
              }
            }
          }
        }
      }
      JOINT lclavicle
      {
        OFFSET 0 28.1932 0
        CHANNELS 3 Zrotation Xrotation Yrotation
        JOINT lhumerus
        {
          OFFSET 18.7865 5.8498 0
          CHANNELS 3 Zrotation Xrotation Yrotation
          JOINT lradius
          {
            OFFSET 24.717 0 0
            CHANNELS 3 Zrotation Xrotation Yrotation
            JOINT lhand
            {
              OFFSET 24.7363 0 0
              CHANNELS 3 Zrotation Xrotation Yrotation
              End Site
              {
                OFFSET 8.2454 0 0
              }
            }
          }
        }
      }
      JOINT head
      {
        OFFSET 0 35.4281 0
        CHANNELS 3 Zrotation Xrotation Yrotation
        End Site
        {
          OFFSET 0 11.8094 0
        }
      }
    }
    JOINT rfemur
    {
      OFFSET -9.1547 0 0
      CHANNELS 3 Zrotation Xrotation Yrotation
      JOINT rtibia
      {
        OFFSET 0 -43.3327 0
        CHANNELS 3 Zrotation Xrotation Yrotation
        JOINT rfoot
        {
          OFFSET 0 -38.9241 0
          CHANNELS 3 Zrotation Xrotation Yrotation
          JOINT rtoes
          {
            OFFSET 0 0 17.1698
            CHANNELS 3 Zrotation Xrotation Yrotation
            End Site
            {
              OFFSET 0 0 5.7233
            }
          }
        }
      }
    }
    JOINT lfemur
    {
      OFFSET 9.1547 0 0
      CHANNELS 3 Zrotation Xrotation Yrotation
      JOINT ltibia
      {
        OFFSET 0 -43.3327 0
        CHANNELS 3 Zrotation Xrotation Yrotation
        JOINT lfoot
        {
          OFFSET 0 -38.9241 0
          CHANNELS 3 Zrotation Xrotation Yrotation
          JOINT ltoes
          {
            OFFSET 0 0 17.1698
            CHANNELS 3 Zrotation Xrotation Yrotation
            End Site
            {
              OFFSET 0 0 5.7233
            }
          }
        }
      }
    }
  }
}
MOTION
Frames:	16
Frame Time:	0.0333333
-127.504 82.4777 14.2923 0.856579 13.2434 -6.69102 0 0 0 -6.49528 -9.02935 1.23227 32.8228 0 -3.2984 42.4556 10.5872 22.8014 0 0 50.2614 -3.40738 -0.299729 10.0503 -28.0621 0 12.3483 -42.093 -4.41765 9.74032 0 0 -9.9228 1.70882 0.150926 10.0972 2.59221 0.842029 1.69978 -3.57682 6.64681 -15.7696 0 20.4712 0 -0.571278 6.86847 4.51013 -179.462 -86.7785 180 -5.6222 -37.2572 15.9592 0 20.408 0 -0.43764 2.54428 9.73479 0.4422 -3.516 0
-126.495 82.9571 18.4348 2.519 12.5366 -5.28639 0 0 0 -9.31076 -8.9982 0.0584189 33.8574 0 -3.951 45.5396 10.2651 18.6672 0 0 45.7053 -2.34482 -0.195082 9.50866 -27.6541 0 11.9914 -44.2019 -3.76368 8.4226 0 0 -11.2805 0.355022 0.0342551 11.032 3.23198 1.54926 1.99713 -7.4422 4.32176 -15.9991 0 30.1095 0 -1.12288 13.9933 4.48578 -178.943 -80.5019 180 -9.69211 -34.0582 12.3908 0 20.7019 0 -0.200231 1.1623 9.71292 0.2018 -2.6516 0
-125.579 83.4673 22.2189 3.05902 11.9001 -3.98365 0 0 0 -10.1365 -8.39868 -0.806955 33.9657 0 -4.3681 48.3327 9.29484 14.9112 0 0 40.176 -0.41195 -0.0315292 8.7442 -27.5718 0 11.5881 -46.646 -1.17273 7.106 0 0 -15.0253 -2.0838 -0.221441 12.1321 2.72641 1.64079 2.76694 -10.0396 0.408706 -16.1514 0 41.0019 0 -0.633337 22.9112 1.52254 -179.454 -83.5193 180 -12.1209 -30.0808 9.71411 0 19.651 0 0.145618 -0.824209 10.1074 -0.1492 -3.1921 0
-124.762 83.9162 25.648 3.04546 11.4432 -3.41333 0 0 0 -9.81992 -7.73214 -1.3311 33.9004 0 -4.3142 50.2065 7.69756 11.6262 0 0 34.1418 1.51838 0.106156 8.00191 -27.8455 0 11.5548 -48.304 3.27375 5.82404 0 0 -21.1012 -4.43359 -0.476852 12.2707 1.72425 1.26244 4.1119 -11.7082 -4.78935 -15.809 0 51.4842 0 2.70141 27.3823 -5.95244 -2.4458 -85.95 0 -13.0662 -26.2317 9.51035 0 17.7938 0 0.3533 -2.07016 9.72211 -0.3595 -3.179 0
-124.065 84.3356 28.8187 2.63523 11.1829 -3.06689 0 0 0 -8.88089 -7.1905 -1.9198 33.8113 0 -4.06 51.4808 5.02288 8.70398 0 0 27.8908 2.33862 0.154058 7.53623 -28.2719 0 11.855 -48.5968 8.13178 4.2785 0 0 -28.328 -4.93542 -0.473607 10.9563 0.823897 0.898162 5.6847 -12.1986 -10.611 -14.5897 0 59.9068 0 5.81368 24.2476 -14.0328 -5.453 -76.6254 0 -13.26 -22.8 10.1888 0 15.7735 0 0.440538 -2.95629 8.5042 -0.4461 -2.491 0
-123.503 84.7176 31.7993 1.56483 11.1017 -1.9391 0 0 0 -7.20902 -6.74445 -2.99726 33.41 0 -3.9797 52.489 0.599368 5.93703 0 0 22.0182 2.01034 0.126006 7.17412 -28.5914 0 12.0413 -47.8272 12.1974 2.47664 0 0 -35.7765 -3.46441 -0.275495 9.09161 0.0416347 0.841654 7.06887 -11.219 -16.4135 -12.6719 0 65.2056 0 5.55966 17.9916 -17.6371 -5.5444 -70.391 0 -13.0049 -19.5427 9.63956 0 13.7774 0 0.510486 -3.87197 7.5354 -0.515 -2.0202 0
-122.975 85.0002 34.6427 0.0468627 11.1038 0.283708 0 0 0 -5.15058 -6.3227 -4.66061 32.76 0 -4.2886 52.7173 -4.51274 3.20976 0 0 17.3487 1.37081 0.0783858 6.54481 -28.6137 0 11.9148 -46.4761 15.0233 0.5149 0 0 -43.0799 -1.59907 -0.106453 7.61381 -0.677029 0.861012 8.10612 -9.43096 -21.8407 -10.4457 0 67.1128 0 4.08873 13.5669 -17.1443 -4.1885 -67.6092 0 -12.5546 -16.1874 7.90904 0 11.4486 0 0.54846 -4.46354 7.02883 -0.5522 -1.7239 0
-122.397 85.1389 37.3788 -1.45185 11.1773 3.19446 0 0 0 -3.3281 -5.99391 -6.72262 32.1987 0 -4.9779 51.8467 -8.43125 0.44784 0 0 14.2595 1.24342 0.058836 5.418 -28.3108 0 11.5904 -44.7727 16.6283 -1.54075 0 0 -50.0542 -0.680417 -0.041099 6.9135 -1.16738 0.587567 8.82127 -7.54183 -26.8481 -7.85592 0 65.8499 0 2.92616 11.2621 -14.9119 -3.0134 -67.8259 0 -12.1007 -13.0354 6.21691 0 9.0831 0 0.512293 -4.76818 6.15498 -0.5147 -1.4241 0
-121.781 85.1368 40.034 -2.71713 11.3428 6.35748 0 0 0 -2.05612 -5.8065 -8.88917 31.8481 0 -5.9148 50.3566 -10.6016 -2.31351 0 0 12.4572 1.56772 0.054934 4.2447 -27.6787 0 11.1585 -42.9416 17.2973 -3.59603 0 0 -56.4242 -0.632776 -0.0347298 6.9348 -1.30826 -0.00148068 9.2054 -5.74816 -31.358 -4.59127 0 61.8612 0 2.0477 9.15632 -12.9695 -2.1235 -68.1251 0 -11.7175 -10.4722 4.59866 0 7.4955 0 0.457178 -5.33078 4.92284 -0.4582 -1.4473 0
-121.187 85.0404 42.6504 -3.86887 11.4973 9.60051 0 0 0 -1.17434 -5.62603 -10.8941 31.6215 0 -7.0102 48.887 -11.2942 -4.9759 0 0 11.6153 1.70457 0.0529428 3.706 -26.8179 0 10.5909 -41.2019 17.3215 -5.59761 0 0 -61.8361 -0.681702 -0.0372542 7.1877 -1.2289 -0.681654 9.23276 -4.00548 -35.145 -0.914531 0 55.6874 0 1.56936 7.33763 -12.4872 -1.6445 -66.7474 0 -11.2567 -8.39701 2.40449 0 6.8997 0 0.456854 -6.28599 4.17706 -0.4566 -1.6253 0
-120.583 84.9034 45.3105 -4.88844 11.4001 12.7942 0 0 0 -0.537902 -5.15441 -12.6049 31.4503 0 -8.0551 47.7865 -11.2082 -7.51554 0 0 11.5393 1.51542 0.0505873 3.8208 -25.9452 0 9.9489 -39.6565 16.8572 -7.59725 0 0 -65.9463 -0.471903 -0.029469 7.1506 -1.08112 -1.35502 8.99964 -2.59514 -37.7413 1.99944 0 47.7244 0 1.62999 7.32189 -12.9593 -1.7082 -65.3794 0 -10.6926 -6.26367 -0.176051 0 6.6775 0 0.51463 -7.24615 4.08357 -0.5131 -1.5937 0
-119.826 84.7329 48.1035 -5.44658 10.9375 15.7623 0 0 0 -0.323139 -4.24026 -14.0383 31.3101 0 -8.8843 47.1072 -11.0305 -9.79356 0 0 11.8499 1.38107 0.0489896 4.0059 -25.1945 0 9.3734 -38.4386 16.059 -9.47484 0 0 -68.6868 -0.133046 -0.00794295 6.8467 -0.838045 -2.05743 8.68894 -2.06585 -38.7262 2.78376 0 38.1477 0 2.0439 9.5997 -12.3575 -2.1092 -66.0892 0 -10.2986 -3.64703 -2.35447 0 6.3661 0 0.541116 -7.94613 3.91767 -0.5384 -2.0193 0
-118.825 84.4864 51.0242 -5.39128 10.4094 18.4299 0 0 0 -0.691141 -3.28503 -15.2159 31.1544 0 -9.5287 46.7534 -10.998 -11.6944 0 0 12.1631 1.51046 0.0482358 3.8477 -24.6096 0 8.9117 -37.7124 15.2121 -10.8806 0 0 -70.2854 0.192994 0.0112243 6.6379 -0.492339 -2.64789 8.43387 -2.45744 -38.5082 1.22544 0 27.4897 0 2.01474 13.473 -8.78253 -2.026 -69.3063 0 -10.2998 -0.788977 -3.78296 0 6.1776 0 0.455456 -8.38316 3.12987 -0.4525 -3.4287 0
-117.662 84.1454 54.0084 -5.09578 10.2003 20.8277 0 0 0 -1.3685 -2.88825 -16.0442 31.0163 0 -10.0904 46.5415 -10.968 -13.1796 0 0 12.2889 1.6845 0.0473667 3.5007 -24.3252 0 8.5131 -37.5078 14.5476 -11.6078 0 0 -70.8578 0.427676 0.024538 6.5649 -0.231472 -2.8409 8.28345 -2.96969 -38.0425 -1.11893 0 16.9833 0 0.599509 16.7892 -2.22906 -0.6171 -74.231 0 -10.4817 1.67501 -4.50763 0 6.5588 0 0.271809 -8.72356 1.80013 -0.2701 -5.1915 0
-116.43 83.7306 57.0764 -4.88339 10.2323 22.9762 0 0 0 -2.0253 -3.02257 -16.4487 30.99 0 -10.5358 46.3807 -10.9144 -14.1682 0 0 12.1071 1.64335 0.045413 3.342 -24.3296 0 8.166 -37.9334 14.1033 -11.7343 0 0 -70.2254 0.525372 0.0298119 6.3692 -0.182888 -2.57773 8.25851 -3.05568 -37.7257 -2.20363 0 8.7777 0 -1.45095 16.5148 4.94435 1.3548 -78.2377 0 -10.5645 3.6098 -4.76678 0 7.6687 0 0.0700319 -9.17763 0.447225 -0.0704 -7.5399 0
-115.124 83.2789 60.3122 -4.78404 10.1262 24.9203 0 0 0 -2.42935 -3.21944 -16.5228 31.0692 0 -10.6862 46.2795 -11.0098 -14.6047 0 0 11.5933 1.39253 0.0414265 3.4107 -24.5296 0 7.9789 -39.1009 13.8419 -11.4607 0 0 -68.2078 0.636523 0.0339537 6.0142 -0.307216 -2.13607 8.37986 -2.85512 -37.4191 -1.80089 0 5.4288 0 -2.39972 12.8811 10.4748 2.3358 -79.8361 0 -10.4115 5.31871 -4.9121 0 9.5752 0 -0.107211 -9.61592 -0.634008 0.1044 -12.7084 0
